HIERARCHY
ROOT Hips
{
	OFFSET -3.958830 18.904000 13.208200
	CHANNELS 6 Xposition Yposition Zposition Zrotation Yrotation Xrotation 
	JOINT LHipJoint
	{
		OFFSET 0.000000 0.000000 0.000000
		CHANNELS 3 Zrotation Yrotation Xrotation
		JOINT LeftUpLeg
		{
			OFFSET 1.800000 -1.400000 0.085000
			CHANNELS 3 Zrotation Yrotation Xrotation
			JOINT LeftLeg
			{
				OFFSET 2.215000 -6.000000 0.000000
				CHANNELS 3 Zrotation Yrotation Xrotation
				JOINT LeftFoot
				{
					OFFSET 2.500000 -6.900000 0.000000
					CHANNELS 3 Zrotation Yrotation Xrotation
					JOINT LeftToeBase
					{
						OFFSET 0.200000 -0.500000 1.950000
						CHANNELS 3 Zrotation Yrotation Xrotation
						End Site
						{
							OFFSET 0.000000 0.000000 0.000000
						}
					}
				}
			}
		}
	}
	JOINT RHipJoint
	{
		OFFSET 0.000000 0.000000 0.000000
		CHANNELS 3 Zrotation Yrotation Xrotation
		JOINT RightUpLeg
		{
			OFFSET -1.800000 -1.400000 0.085000
			CHANNELS 3 Zrotation Yrotation Xrotation
			JOINT RightLeg
			{
				OFFSET -2.215000 -6.000000 0.000000
				CHANNELS 3 Zrotation Yrotation Xrotation
				JOINT RightFoot
				{
					OFFSET -2.500000 -6.900000 0.000000
					CHANNELS 3 Zrotation Yrotation Xrotation
					JOINT RightToeBase
					{
						OFFSET -0.200000 -0.500000 1.950000
						CHANNELS 3 Zrotation Yrotation Xrotation
						End Site
						{
							OFFSET 0.000000 0.000000 0.000000
						}
					}
				}
			}
		}
	}
	JOINT LowerBack
	{
		OFFSET 0.000000 0.000000 0.000000
		CHANNELS 3 Zrotation Yrotation Xrotation
		JOINT Spine
		{
			OFFSET -0.087000 1.940000 -0.288900
			CHANNELS 3 Zrotation Yrotation Xrotation
			JOINT Spine1
			{
				OFFSET 0.000000 1.950000 0.060000
				CHANNELS 3 Zrotation Yrotation Xrotation
				JOINT Neck
				{
					OFFSET 0.000000 0.000000 0.000000
					CHANNELS 3 Zrotation Yrotation Xrotation
					JOINT Neck1
					{
						OFFSET 0.000000 1.600000 0.340000
						CHANNELS 3 Zrotation Yrotation Xrotation
						JOINT Head
						{
							OFFSET 0.000000 1.667000 -0.240000
							CHANNELS 3 Zrotation Yrotation Xrotation
							End Site
							{
								OFFSET 0.000000 0.000000 0.000000
							}
						}
					}
				}
				JOINT LeftShoulder
				{
					OFFSET 0.000000 0.000000 0.000000
					CHANNELS 3 Zrotation Yrotation Xrotation
					JOINT LeftArm
					{
						OFFSET 2.700000 1.550000 -0.730000
						CHANNELS 3 Zrotation Yrotation Xrotation
						JOINT LeftForeArm
						{
							OFFSET 5.450000 0.000000 0.000000
							CHANNELS 3 Zrotation Yrotation Xrotation
							JOINT LeftHand
							{
								OFFSET 3.450000 0.000000 0.000000
								CHANNELS 3 Zrotation Yrotation Xrotation
								JOINT LeftHandIndex1
								{
									OFFSET 0.750000 0.000000 0.000000
									CHANNELS 3 Zrotation Yrotation Xrotation
									End Site
									{
										OFFSET 0.000000 0.000000 0.000000
									}
								}
							}
						}
					}
				}
				JOINT RightShoulder
				{
					OFFSET 0.000000 0.000000 0.000000
					CHANNELS 3 Zrotation Yrotation Xrotation
					JOINT RightArm
					{
						OFFSET -2.700000 1.550000 -0.730000
						CHANNELS 3 Zrotation Yrotation Xrotation
						JOINT RightForeArm
						{
							OFFSET -5.450000 0.000000 0.000000
							CHANNELS 3 Zrotation Yrotation Xrotation
							JOINT RightHand
							{
								OFFSET -3.450000 0.000000 0.000000
								CHANNELS 3 Zrotation Yrotation Xrotation
								JOINT RightHandIndex1
								{
									OFFSET -0.750000 0.000000 0.000000
									CHANNELS 3 Zrotation Yrotation Xrotation
									End Site
									{
										OFFSET 0.000000 0.000000 0.000000
									}
								}
							}
						}
					}
				}
			}
		}
	}
}
MOTION
Frames: 11
Frame Time: 0.016667
-0.248470 16.235850 -3.485210 -2.051944 -3.938082 -5.207903 -15.170697 10.818077 3.783276 -11.946626 -9.687894 -10.628655 -7.818180 17.932980 67.255840 1.883905 13.220733 0.314862 0.342330 0.217290 0.419870 18.788392 -8.060531 5.114882 -11.880420 9.974695 -46.788786 42.321121 -26.557602 41.004237 -2.033155 -10.390957 0.818356 0.093550 0.100940 0.341160 -4.404064 -1.358366 -9.124710 28.771636 -13.603686 44.252448 -11.232159 -6.214822 8.699631 3.899158 -2.840729 -9.404454 -4.621349 3.375281 25.456528 -13.759460 11.462670 -23.165640 -2.269453 4.554716 -0.027191 -6.375238 8.967856 -4.891868 157.051505 -32.501140 -128.823049 -3.772680 3.483103 0.451420 0.132900 0.190980 0.052440 -5.577968 -3.451633 8.410745 42.704692 -2.868106 2.745471 172.702306 29.232973 129.208171 2.096161 -2.423013 -0.084270 0.141710 -0.006530 -0.201600 
-0.253750 16.163200 -3.468340 -2.066063 -4.293444 -5.228453 -15.209066 10.864016 3.836552 -11.207045 -9.759987 -10.697098 -9.945613 19.818453 67.283368 2.040290 13.640230 0.242098 0.296280 0.170790 0.380380 18.746186 -7.987619 5.052191 -11.004708 10.361286 -46.071313 42.608731 -26.107755 40.223310 -1.982033 -10.244984 0.892875 0.060740 0.149940 0.331030 -4.294927 -1.586577 -9.147900 27.732795 -12.849695 44.073164 -9.935714 -5.856773 8.891746 3.750556 -2.969217 -9.621172 -4.893352 3.110531 25.374945 -13.876080 11.300160 -21.638660 -2.527590 4.179850 0.057448 -6.526429 8.534292 -4.855677 156.133068 -32.176846 -125.538294 -3.812002 3.450990 0.408610 0.165190 0.152960 0.058690 -5.017758 -2.795723 8.580783 40.891758 -2.894307 2.291393 174.034417 29.942631 133.045967 2.111270 -2.380655 -0.088450 0.155710 0.009370 -0.180660 
-0.274180 16.094120 -3.442460 -1.373734 -4.420845 -4.691251 -15.258653 10.819673 3.956202 -10.531889 -10.331136 -11.954078 -12.469201 22.169635 67.855105 2.276001 14.162420 0.126096 0.302700 0.173140 0.358670 18.714219 -7.808151 5.039934 -10.837005 10.533204 -46.732644 42.098187 -25.940802 40.522247 -1.977711 -10.203026 0.913109 0.031300 0.122410 0.325750 -4.187728 -1.883846 -9.246725 25.252415 -11.545993 42.545134 -7.855557 -5.617918 9.905628 3.083625 -3.423889 -10.480998 -6.122611 3.395534 27.017993 -12.327550 10.599510 -20.664590 -1.999844 2.818272 1.610178 -9.060581 10.004951 -5.170736 157.165728 -33.767172 -131.280927 -3.757531 3.487114 0.397970 0.122560 0.164400 0.077470 -4.151393 -1.005088 8.465564 39.339275 -2.253695 0.351427 173.600804 33.342075 132.210263 2.137118 -2.349082 -0.047310 0.116280 -0.018750 -0.151260 
-0.281750 16.112070 -3.417680 -0.814397 -5.624999 -5.118907 -15.293556 10.891766 4.019467 -9.897891 -10.156610 -12.359155 -14.460219 23.886415 67.326298 2.387599 14.430113 0.072859 0.265610 0.101400 0.345680 18.671697 -7.753433 4.985614 -9.653096 11.369192 -46.148063 39.631981 -25.517902 42.349653 -1.972974 -10.182795 0.932614 -0.033060 0.093620 0.300000 -4.089253 -2.121055 -9.278708 23.447944 -10.615725 42.522676 -6.910565 -5.091674 11.078022 3.003730 -4.294305 -11.668852 -8.161452 3.470156 28.722780 -11.758580 9.592000 -21.415580 -1.774370 0.759547 3.279843 -13.144847 10.658366 -6.290789 157.508680 -35.894729 -137.149929 -3.697396 3.436384 0.455510 0.061800 0.176460 0.060260 -4.143280 1.897432 8.960314 39.884516 -1.831892 -2.708742 172.753337 37.705360 130.800427 2.152797 -2.216870 -0.057050 0.116930 -0.006400 -0.158950 
-0.284020 16.193600 -3.393800 -0.773935 -4.660826 -5.594625 -15.303528 10.997447 4.074546 -9.467918 -10.541195 -12.797177 -14.044329 23.541370 67.661758 2.454284 14.312036 0.097511 0.262600 0.097200 0.347670 18.640166 -7.810465 4.878728 -9.144150 10.828807 -45.257372 37.741272 -25.066705 42.903764 -1.944848 -10.035253 0.976908 -0.090020 0.012410 0.291260 -4.011935 -2.307046 -9.285786 23.150895 -10.493806 41.710212 -6.583000 -4.677503 11.858830 3.251249 -4.486656 -12.954210 -9.269652 2.605395 31.076174 -11.566520 8.549830 -21.424850 -2.716292 -2.506914 4.510772 -14.645487 9.139391 -6.884375 160.103304 -39.896556 -149.485953 -3.594668 3.465621 0.467110 -0.008710 0.220400 0.051990 -3.642899 5.281510 10.296250 41.502116 -4.010800 -5.969754 171.887103 40.663922 128.414558 2.208319 -2.141203 0.000230 0.058190 -0.035830 -0.145880 
-0.296060 16.315030 -3.349930 -0.620829 -4.384686 -5.623468 -15.325342 11.208469 4.077182 -8.781383 -10.423508 -13.212041 -13.557082 22.705075 66.610039 2.422843 13.959001 0.179093 0.214450 0.011030 0.335580 18.583913 -7.861547 4.807960 -8.592361 10.592391 -44.319703 36.025115 -24.218922 42.915595 -1.868203 -9.773776 1.052773 -0.181670 -0.040360 0.288320 -3.885486 -2.608718 -9.295632 21.962345 -9.846264 40.465234 -5.887380 -4.221515 12.133501 3.612741 -4.490595 -14.492595 -10.238553 2.587898 34.190335 -11.559950 8.095430 -19.841450 -3.237478 -5.537959 6.365984 -17.951275 9.733554 -7.547210 163.613410 -43.659990 -162.299965 -3.526541 3.478976 0.497380 -0.059890 0.238420 0.024760 -3.771161 8.546664 11.445905 42.890151 -4.972051 -8.311586 170.117596 42.984573 124.433223 2.267516 -2.057398 0.025160 -0.000880 -0.029520 -0.151280 
-0.314260 16.468980 -3.281450 -0.833391 -3.548035 -5.306313 -15.316803 11.436478 4.017561 -7.512251 -10.054952 -13.345682 -13.035389 21.520569 64.697991 2.311888 13.426098 0.298844 0.211560 -0.001520 0.326540 18.545156 -8.010030 4.700062 -8.144358 10.005411 -42.723632 35.204101 -23.187777 41.508429 -1.765038 -9.382898 1.163737 -0.209400 -0.074430 0.287540 -3.825449 -2.771481 -9.240383 21.386850 -9.406757 38.179515 -5.217902 -4.040073 12.066098 3.716107 -4.294097 -15.286563 -10.441255 2.809260 36.213177 -11.117830 7.806450 -17.421260 -3.581028 -7.102128 7.572519 -21.059031 9.749386 -7.609069 169.051789 -48.057769 -176.992760 -3.473774 3.526705 0.494900 -0.081090 0.247470 0.027540 -3.606155 10.037857 11.767189 43.960138 -4.889537 -9.250519 167.354898 44.639720 119.317394 2.299831 -2.045773 0.051730 -0.048160 -0.045990 -0.145580 
-0.344140 16.642790 -3.205120 -1.054891 -2.934713 -4.467693 -15.295582 11.669860 3.916148 -5.603103 -9.388648 -13.793771 -12.762201 20.519384 62.138942 2.178883 12.886982 0.450657 0.179240 -0.059350 0.304470 18.511346 -8.186128 4.603866 -7.857170 9.542477 -40.888956 35.102445 -21.750163 38.838433 -1.604250 -8.831348 1.336609 -0.242790 -0.046640 0.275420 -3.794523 -2.851567 -9.161162 20.542543 -8.704490 35.161222 -4.504230 -3.838379 11.798421 3.658790 -4.064224 -15.897814 -10.185263 3.553736 37.257219 -10.108800 7.663770 -13.430050 -4.232705 -8.253816 8.652276 -23.995994 10.877891 -7.847446 177.426901 -52.908735 165.008528 -3.460158 3.538051 0.473470 -0.065960 0.216800 0.038240 -2.830683 11.107003 11.860468 43.950499 -4.204378 -8.927778 165.996411 45.001426 116.830260 2.337731 -2.043375 0.042630 -0.058770 -0.048710 -0.135780 
-0.382580 16.829390 -3.141540 -1.179111 -2.575975 -3.334578 -15.278011 11.862780 3.786399 -3.499157 -8.546833 -14.530561 -12.412458 19.651584 59.550265 2.036851 12.351788 0.601750 0.164780 -0.072860 0.296810 18.479139 -8.360035 4.539988 -7.826172 9.247950 -39.340208 35.159113 -20.152777 35.865346 -1.432130 -8.267365 1.522411 -0.243080 -0.008240 0.263210 -3.764254 -2.821341 -9.074929 19.248884 -7.540514 32.002474 -3.516032 -3.420940 11.696456 3.456872 -3.457336 -15.791216 -8.734225 3.751477 36.857582 -9.968580 7.873490 -10.395700 -4.918802 -8.489725 8.919356 -25.511478 10.943580 -7.570265 -173.142571 -56.513523 148.732787 -3.486436 3.543073 0.413450 -0.023280 0.177310 0.051640 -1.801945 11.019820 11.468912 43.462692 -2.812083 -7.683560 166.314548 45.110483 118.488857 2.349018 -2.064071 0.039750 -0.057440 -0.061690 -0.121090 
-0.409130 17.035110 -3.072930 -1.130420 -2.254214 -2.179767 -15.252834 12.005582 3.678376 -1.524061 -7.745104 -15.165007 -12.616494 19.132367 56.785324 1.909409 11.885336 0.737178 0.152630 -0.087960 0.273430 18.458025 -8.532486 4.467128 -8.719113 8.610944 -37.814886 35.477102 -18.670668 32.610872 -1.279014 -7.755149 1.690050 -0.249440 0.047040 0.278270 -3.765306 -2.737161 -8.987661 18.013031 -6.573611 28.876154 -2.957560 -3.127451 11.398046 3.237744 -3.104803 -15.608550 -7.834377 4.047509 36.328595 -9.252620 7.703660 -7.902320 -5.536642 -8.289789 9.044075 -27.020865 11.303390 -7.342021 -160.125798 -59.038910 128.227986 -3.540915 3.553043 0.366570 0.023060 0.146330 0.073430 -0.778840 10.615467 11.013380 43.101444 -2.292917 -7.078517 163.847849 46.186798 115.452347 2.344109 -2.074516 0.045590 -0.054900 -0.060940 -0.096910 
-0.442460 17.238130 -3.005670 -1.613367 -2.151738 -0.841198 -15.220624 12.128279 3.561908 0.977580 -6.886231 -16.152883 -12.976101 18.749935 53.907217 1.742954 11.434994 0.844890 0.144350 -0.099670 0.249010 18.452074 -8.669792 4.407147 -9.077762 8.353083 -36.479960 35.468987 -17.180854 29.640451 -1.127204 -7.261945 1.847172 -0.240070 0.095460 0.283610 -3.800445 -2.658786 -8.884681 17.426337 -5.714989 25.536403 -2.283079 -2.761960 10.897257 2.886736 -3.269164 -15.089559 -8.013610 4.645501 35.867301 -8.082440 7.387180 -5.742450 -6.739518 -7.447964 8.861549 -27.871733 11.927959 -6.866343 -146.772891 -60.199433 109.263488 -3.617118 3.579464 0.326450 0.063830 0.104440 0.079160 1.158246 9.859992 10.208548 41.409114 -2.557975 -6.959044 158.238260 47.802862 107.487101 2.340765 -2.074762 0.041240 -0.051930 -0.046400 -0.084390 
